<svg fill="none" height="49" viewBox="0 0 81 49" width="81" xmlns="http://www.w3.org/2000/svg"><path d="m56.8125.710938h-32.625c-6.3093 0-12.3601 2.506342-16.82141 6.967652s-6.967652 10.51211-6.967652 16.82141 2.506342 12.3601 6.967652 16.8214 10.51211 6.9677 16.82141 6.9677h32.625c6.3093 0 12.3601-2.5064 16.8214-6.9677s6.9677-10.5121 6.9677-16.8214-2.5064-12.3601-6.9677-16.82141-10.5121-6.967652-16.8214-6.967652zm0 43.499962h-32.625c-5.2277 0-10.2412-2.0766-13.9377-5.7732-3.69656-3.6965-5.77324-8.71-5.77324-13.9377s2.07668-10.2412 5.77324-13.9377c3.6965-3.69656 8.71-5.77324 13.9377-5.77324h32.625c5.2277 0 10.2412 2.07668 13.9377 5.77324 3.6966 3.6965 5.7732 8.71 5.7732 13.9377s-2.0766 10.2412-5.7732 13.9377c-3.6965 3.6966-8.71 5.7732-13.9377 5.7732zm-32.625-32.625c-2.5542 0-5.051.7574-7.1747 2.1764-2.1237 1.4191-3.7789 3.436-4.7563 5.7957-.9775 2.3597-1.2332 4.9563-.7349 7.4614s1.7282 4.8062 3.5343 6.6122c1.806 1.8061 4.1071 3.036 6.6122 3.5343s5.1017.2426 7.4614-.7349c2.3597-.9774 4.3766-2.6326 5.7957-4.7563 1.419-2.1237 2.1764-4.6205 2.1764-7.1747 0-3.425-1.3606-6.7098-3.7825-9.1316-2.4218-2.4219-5.7066-3.7825-9.1316-3.7825zm0 21.75c-1.7476 0-3.4559-.5182-4.909-1.4891-1.453-.9709-2.5856-2.3509-3.2543-3.9654-.6688-1.6146-.8438-3.3912-.5029-5.1052.341-1.714 1.1825-3.2884 2.4182-4.5241 1.2358-1.2358 2.8102-2.0773 4.5242-2.4183 1.714-.3409 3.4906-.1659 5.1052.5029 1.6145.6687 2.9945 1.8013 3.9654 3.2543.9709 1.4531 1.4891 3.1614 1.4891 4.909-.0089 2.3407-.9427 4.5829-2.5978 6.2381-1.6552 1.6551-3.8974 2.5889-6.2381 2.5978z" fill="#000"/></svg>