<svg width="80" height="80" viewBox="0 0 80 80" fill="none" xmlns="http://www.w3.org/2000/svg">
<path d="M40 15C23.3333 15 9.10001 25.3667 3.33334 40C9.10001 54.6333 23.3333 65 40 65C56.6667 65 70.9 54.6333 76.6667 40C70.9 25.3667 56.6667 15 40 15ZM40 56.6667C30.8 56.6667 23.3333 49.2 23.3333 40C23.3333 30.8 30.8 23.3333 40 23.3333C49.2 23.3333 56.6667 30.8 56.6667 40C56.6667 49.2 49.2 56.6667 40 56.6667ZM40 30C34.4667 30 30 34.4667 30 40C30 45.5333 34.4667 50 40 50C45.5333 50 50 45.5333 50 40C50 34.4667 45.5333 30 40 30Z" fill="#474554"/>
</svg>
